<svg width="1200" height="630" viewBox="0 0 1200 630" fill="none" xmlns="http://www.w3.org/2000/svg">
  <defs>
    <linearGradient id="react-bg" x1="70" y1="30" x2="1110" y2="610" gradientUnits="userSpaceOnUse"><stop stop-color="#020617"/><stop offset="0.52" stop-color="#082F49"/><stop offset="1" stop-color="#1E1B4B"/></linearGradient>
    <linearGradient id="react-line" x1="260" y1="156" x2="990" y2="474" gradientUnits="userSpaceOnUse"><stop stop-color="#38BDF8"/><stop offset="0.48" stop-color="#2563EB"/><stop offset="1" stop-color="#A855F7"/></linearGradient>
    <filter id="react-glow"><feGaussianBlur stdDeviation="15"/></filter>
  </defs>
  <rect width="1200" height="630" rx="36" fill="url(#react-bg)"/>
  <g opacity=".15" stroke="#38BDF8"><path d="M0 90H1200M0 180H1200M0 270H1200M0 360H1200M0 450H1200M0 540H1200"/><path d="M120 0V630M240 0V630M360 0V630M480 0V630M600 0V630M720 0V630M840 0V630M960 0V630M1080 0V630"/></g>
  <circle cx="810" cy="315" r="176" fill="#38BDF8" opacity=".16" filter="url(#react-glow)"/>
  <g transform="translate(810 315)" stroke="url(#react-line)" stroke-width="8">
    <ellipse rx="164" ry="65"/><ellipse rx="164" ry="65" transform="rotate(60)"/><ellipse rx="164" ry="65" transform="rotate(120)"/>
    <circle r="22" fill="#38BDF8" stroke="none"/>
  </g>
  <text x="74" y="160" fill="#38BDF8" font-size="16" font-family="monospace" letter-spacing="5">INTERFACE ENGINEERING</text>
  <text x="72" y="245" fill="#F8FAFC" font-size="64" font-weight="700" font-family="Arial, sans-serif">React 18</text>
  <text x="74" y="302" fill="#94A3B8" font-size="25" font-family="Arial, sans-serif">Smooth UI systems that feel fast</text>
  <rect x="74" y="360" width="310" height="52" rx="26" fill="#0F172A" stroke="#38BDF8" stroke-opacity=".45"/>
  <text x="101" y="394" fill="#BAE6FD" font-size="18" font-family="monospace">components.render()</text>
</svg>
