<svg width="960" height="540" viewBox="0 0 960 540" fill="none" xmlns="http://www.w3.org/2000/svg">
  <defs>
    <linearGradient id="bg" x2="960" y2="540"><stop stop-color="#071224"/><stop offset="1" stop-color="#11183B"/></linearGradient>
    <linearGradient id="glow" x2="620"><stop stop-color="#38BDF8"/><stop offset=".55" stop-color="#2563EB"/><stop offset="1" stop-color="#8B5CF6"/></linearGradient>
    <filter id="blur"><feGaussianBlur stdDeviation="42"/></filter>
  </defs>
  <rect width="960" height="540" rx="30" fill="url(#bg)"/>
  <ellipse cx="735" cy="130" rx="180" ry="120" fill="#2563EB" opacity=".22" filter="url(#blur)"/>
  <path d="M0 92H960M0 184H960M0 276H960M0 368H960M0 460H960M120 0V540M240 0V540M360 0V540M480 0V540M600 0V540M720 0V540M840 0V540" stroke="#38BDF8" opacity=".06"/>
  <text x="54" y="64" fill="#38BDF8" font-family="monospace" font-size="14" letter-spacing="3">PIPELINE / DEPLOYMENT</text>
  <text x="54" y="124" fill="#F8FAFC" font-family="Arial, sans-serif" font-size="40" font-weight="700">CI/CD Application</text>
  <text x="54" y="156" fill="#94A3B8" font-family="Arial, sans-serif" font-size="16">Automated build and deploy workflow</text>
  <g>
    <rect x="54" y="235" width="168" height="118" rx="18" fill="#0F172A" stroke="#38BDF8" stroke-opacity=".35"/>
    <circle cx="82" cy="262" r="8" fill="#38BDF8"/>
    <text x="104" y="268" fill="#E2E8F0" font-family="Arial, sans-serif" font-size="16">Commit</text>
    <text x="82" y="314" fill="#38BDF8" font-family="monospace" font-size="13">git push</text>
    <path d="M222 294H268" stroke="url(#glow)" stroke-width="3"/>
    <path d="M260 286L270 294L260 302" stroke="#38BDF8" stroke-width="3"/>
    <rect x="270" y="235" width="168" height="118" rx="18" fill="#0F172A" stroke="#38BDF8" stroke-opacity=".35"/>
    <circle cx="298" cy="262" r="8" fill="#6366F1"/>
    <text x="320" y="268" fill="#E2E8F0" font-family="Arial, sans-serif" font-size="16">Test</text>
    <text x="298" y="314" fill="#A5B4FC" font-family="monospace" font-size="13">passed 24/24</text>
    <path d="M438 294H484" stroke="url(#glow)" stroke-width="3"/>
    <path d="M476 286L486 294L476 302" stroke="#6366F1" stroke-width="3"/>
    <rect x="486" y="235" width="168" height="118" rx="18" fill="#0F172A" stroke="#8B5CF6" stroke-opacity=".5"/>
    <circle cx="514" cy="262" r="8" fill="#A855F7"/>
    <text x="536" y="268" fill="#E2E8F0" font-family="Arial, sans-serif" font-size="16">Deploy</text>
    <text x="514" y="314" fill="#C4B5FD" font-family="monospace" font-size="13">production</text>
  </g>
  <rect x="54" y="414" width="850" height="62" rx="16" fill="#020617" stroke="#334155"/>
  <circle cx="81" cy="445" r="6" fill="#34D399"/>
  <text x="101" y="451" fill="#94A3B8" font-family="monospace" font-size="14">workflow completed - deployment live</text>
</svg>
