<svg width="960" height="540" viewBox="0 0 960 540" fill="none" xmlns="http://www.w3.org/2000/svg">
  <defs>
    <linearGradient id="b" x2="960" y2="540"><stop stop-color="#061426"/><stop offset="1" stop-color="#16123B"/></linearGradient>
    <linearGradient id="a" x2="1" y2="1"><stop stop-color="#38BDF8"/><stop offset=".48" stop-color="#6366F1"/><stop offset="1" stop-color="#A855F7"/></linearGradient>
  </defs>
  <rect width="960" height="540" rx="30" fill="url(#b)"/>
  <circle cx="820" cy="80" r="180" fill="#8B5CF6" opacity=".1"/>
  <text x="52" y="60" fill="#38BDF8" font-family="monospace" font-size="14" letter-spacing="3">EVENT CONTROL</text>
  <text x="52" y="115" fill="#F8FAFC" font-family="Arial, sans-serif" font-size="39" font-weight="700">Event Management</text>
  <rect x="52" y="162" width="520" height="304" rx="24" fill="#0F172A" stroke="#38BDF8" stroke-opacity=".24"/>
  <text x="82" y="204" fill="#94A3B8" font-family="Arial, sans-serif" font-size="14">UPCOMING EVENTS</text>
  <rect x="82" y="230" width="460" height="70" rx="14" fill="#17233C"/>
  <rect x="99" y="247" width="44" height="38" rx="10" fill="url(#a)"/>
  <text x="110" y="271" fill="white" font-family="Arial" font-size="13" font-weight="700">24</text>
  <text x="160" y="258" fill="#F8FAFC" font-family="Arial" font-size="15">Tech Meet Sri Lanka</text>
  <text x="160" y="280" fill="#94A3B8" font-family="Arial" font-size="12">Registrations open</text>
  <rect x="82" y="316" width="460" height="70" rx="14" fill="#17233C"/>
  <rect x="99" y="333" width="44" height="38" rx="10" fill="#2563EB"/>
  <text x="110" y="357" fill="white" font-family="Arial" font-size="13" font-weight="700">06</text>
  <text x="160" y="344" fill="#F8FAFC" font-family="Arial" font-size="15">Product Launch</text>
  <text x="160" y="366" fill="#94A3B8" font-family="Arial" font-size="12">86 attending</text>
  <rect x="604" y="162" width="302" height="144" rx="24" fill="#0F172A" stroke="#8B5CF6" stroke-opacity=".35"/>
  <text x="632" y="204" fill="#94A3B8" font-family="Arial" font-size="14">REGISTRATIONS</text>
  <text x="632" y="262" fill="#38BDF8" font-family="Arial" font-size="52" font-weight="700">248</text>
  <rect x="604" y="324" width="302" height="142" rx="24" fill="#0F172A" stroke="#38BDF8" stroke-opacity=".26"/>
  <text x="632" y="364" fill="#94A3B8" font-family="Arial" font-size="14">ACTIVE EVENTS</text>
  <path d="M635 422L684 390L730 405L782 374L850 397" stroke="url(#a)" stroke-width="4" stroke-linecap="round"/>
</svg>
