<svg width="960" height="540" viewBox="0 0 960 540" fill="none" xmlns="http://www.w3.org/2000/svg">
  <defs><linearGradient id="bg4" x2="960" y2="540"><stop stop-color="#041321"/><stop offset="1" stop-color="#14163B"/></linearGradient><linearGradient id="g4" x2="1" y2="1"><stop stop-color="#38BDF8"/><stop offset=".52" stop-color="#2563EB"/><stop offset="1" stop-color="#A855F7"/></linearGradient></defs>
  <rect width="960" height="540" rx="30" fill="url(#bg4)"/>
  <text x="55" y="64" fill="#38BDF8" font-family="monospace" font-size="14" letter-spacing="3">SECURE PAYMENT API</text>
  <text x="55" y="116" fill="#F8FAFC" font-family="Arial" font-size="38" font-weight="700">Transaction Console</text>
  <rect x="55" y="170" width="334" height="278" rx="25" fill="#0F172A" stroke="#38BDF8" stroke-opacity=".24"/>
  <text x="84" y="214" fill="#94A3B8" font-family="Arial" font-size="13">PAYMENT TOTAL</text>
  <text x="84" y="272" fill="#F8FAFC" font-family="Arial" font-size="44" font-weight="700">$ 2,480.00</text>
  <rect x="84" y="309" width="276" height="48" rx="12" fill="#162139"/>
  <text x="104" y="339" fill="#CBD5E1" font-family="monospace" font-size="13">**** 4821  VISA</text>
  <rect x="84" y="379" width="276" height="45" rx="22" fill="url(#g4)"/>
  <text x="169" y="407" fill="white" font-family="Arial" font-size="14" font-weight="700">PROCESS PAYMENT</text>
  <rect x="425" y="170" width="480" height="278" rx="25" fill="#0F172A" stroke="#8B5CF6" stroke-opacity=".25"/>
  <text x="455" y="213" fill="#94A3B8" font-family="Arial" font-size="13">RECENT TRANSACTIONS</text>
  <path d="M455 238H875M455 296H875M455 354H875" stroke="#263449"/>
  <text x="455" y="269" fill="#E2E8F0" font-family="Arial" font-size="14">Order #1024</text><text x="730" y="269" fill="#34D399" font-family="Arial" font-size="14">Success</text><text x="836" y="269" fill="#E2E8F0" font-family="Arial" font-size="14">$85</text>
  <text x="455" y="327" fill="#E2E8F0" font-family="Arial" font-size="14">Order #1023</text><text x="730" y="327" fill="#34D399" font-family="Arial" font-size="14">Success</text><text x="826" y="327" fill="#E2E8F0" font-family="Arial" font-size="14">$120</text>
  <text x="455" y="385" fill="#E2E8F0" font-family="Arial" font-size="14">Order #1022</text><text x="730" y="385" fill="#38BDF8" font-family="Arial" font-size="14">Pending</text><text x="836" y="385" fill="#E2E8F0" font-family="Arial" font-size="14">$42</text>
</svg>
