<svg width="960" height="540" viewBox="0 0 960 540" fill="none" xmlns="http://www.w3.org/2000/svg">
  <defs><linearGradient id="bg5" x2="960" y2="540"><stop stop-color="#061526"/><stop offset="1" stop-color="#160F35"/></linearGradient><linearGradient id="g5" x2="1" y2="1"><stop stop-color="#38BDF8"/><stop offset="1" stop-color="#A855F7"/></linearGradient></defs>
  <rect width="960" height="540" rx="30" fill="url(#bg5)"/>
  <text x="62" y="65" fill="#38BDF8" font-family="monospace" font-size="14" letter-spacing="3">PRODUCTIVITY / WEB APP</text>
  <text x="62" y="116" fill="#F8FAFC" font-family="Arial" font-size="39" font-weight="700">Interactive Todo</text>
  <rect x="62" y="164" width="836" height="308" rx="26" fill="#0F172A" stroke="#38BDF8" stroke-opacity=".25"/>
  <rect x="92" y="194" width="476" height="54" rx="14" fill="#162239"/>
  <text x="116" y="228" fill="#64748B" font-family="Arial" font-size="15">Add a new task...</text>
  <rect x="482" y="202" width="70" height="38" rx="11" fill="url(#g5)"/>
  <text x="503" y="226" fill="white" font-family="Arial" font-size="13" font-weight="700">Add</text>
  <rect x="92" y="273" width="476" height="50" rx="14" fill="#111C32"/>
  <circle cx="120" cy="298" r="11" fill="#38BDF8"/><path d="M114 298L118 302L126 293" stroke="white" stroke-width="2.4"/>
  <text x="150" y="304" fill="#94A3B8" font-family="Arial" font-size="14">Design responsive task card</text>
  <rect x="92" y="339" width="476" height="50" rx="14" fill="#111C32"/>
  <circle cx="120" cy="364" r="11" stroke="#64748B" stroke-width="2"/>
  <text x="150" y="370" fill="#F8FAFC" font-family="Arial" font-size="14">Store progress locally</text>
  <rect x="618" y="194" width="239" height="195" rx="20" fill="#111C32"/>
  <text x="646" y="229" fill="#94A3B8" font-family="Arial" font-size="12">PROGRESS</text>
  <text x="646" y="285" fill="#38BDF8" font-family="Arial" font-size="46" font-weight="700">64%</text>
  <rect x="646" y="314" width="174" height="9" rx="4.5" fill="#263449"/>
  <rect x="646" y="314" width="112" height="9" rx="4.5" fill="url(#g5)"/>
  <text x="646" y="355" fill="#C4B5FD" font-family="monospace" font-size="12">4 tasks complete</text>
</svg>
